<svg width="15" height="13" viewBox="0 0 15 13" fill="none" xmlns="http://www.w3.org/2000/svg">
<path d="M3.93996 0C1.76668 0 0 1.701 0 3.75C0 4.465 0.340413 5.084 0.65666 5.5315C0.842963 5.79652 1.05756 6.0425 1.29704 6.2655L6.97636 11.6875L7.35407 12.047L7.73178 11.6875L13.4116 6.2655C13.4116 6.2655 14.7092 5.1775 14.7092 3.75C14.7092 1.701 12.9425 0 10.7692 0C8.96525 0 7.80375 1.033 7.3546 1.469C6.90544 1.033 5.74394 0 3.93996 0ZM3.93996 1C5.50964 1 6.9606 2.453 6.9606 2.453L7.3546 2.875L7.74859 2.453C7.74859 2.453 9.19955 1 10.7692 1C12.3678 1 13.6585 2.248 13.6585 3.75C13.6585 4.5215 12.6735 5.5625 12.6735 5.5625L7.3546 10.625L2.03565 5.5625C2.03565 5.5625 1.78139 5.33 1.5266 4.9685C1.27235 4.608 1.05066 4.137 1.05066 3.75C1.05066 2.248 2.34139 1 3.93996 1Z" fill="white"/>
</svg>
