<svg width="72" height="56" viewBox="0 0 72 56" fill="none" xmlns="http://www.w3.org/2000/svg">
<path d="M38.6122 0.00268555L36.5132 3.82317L21.5029 31.1097L17.0932 26.7L15.5742 29.2271L2.08746 51.7058L0 55.1903H72L70.6237 51.9797L63.7192 35.8692L62.3797 32.7461L57.6203 37.5056L40.5823 3.89221L38.6145 0.00268555H38.6122ZM38.4442 9.85769L45.4407 23.6575L43.6594 25.1857L38.412 20.6908L33.1669 25.1857L31.0265 23.3468L38.4442 9.85769ZM38.4143 26.7507L43.6617 31.2455L47.5788 27.8853L54.9436 42.4193L56.3751 45.257L60.8216 40.8105L65.0104 50.5873H8.12658C11.4177 45.0982 14.7135 39.6091 18.0069 34.1224L22.5823 38.6977L24.0598 36.0142C25.6272 33.1649 27.1968 30.318 28.7618 27.4687L33.1669 31.2432L38.4143 26.7507Z" fill="white"/>
</svg>
