<svg width="69" height="45" viewBox="0 0 69 45" fill="none" xmlns="http://www.w3.org/2000/svg">
<path d="M34.4323 0.258789C11.6186 0.258789 0 22.5124 0 22.5124C0 22.5124 11.6186 44.7661 34.4323 44.7661C57.2483 44.7661 68.8646 22.5124 68.8646 22.5124C68.8646 22.5124 57.2483 0.258789 34.4323 0.258789ZM34.4323 41.0542C15.4211 41.0542 5.73872 22.5124 5.73872 22.5124C5.73872 22.5124 15.4211 3.96625 34.4323 3.96625C53.4458 3.96625 63.1259 22.5124 63.1259 22.5124C63.1259 22.5124 53.4458 41.0542 34.4323 41.0542Z" fill="white"/>
<path d="M34.3181 38.6463C25.1419 38.6463 17.6758 31.4083 17.6758 22.5124C17.6758 13.6165 25.1419 6.37854 34.3181 6.37854C43.4943 6.37854 50.9603 13.6165 50.9603 22.5124C50.9603 31.4083 43.4954 38.6463 34.3181 38.6463ZM34.3181 9.71659C27.0402 9.71659 21.119 15.4569 21.119 22.5124C21.119 29.5679 27.0402 35.3083 34.3181 35.3083C41.5959 35.3083 47.5171 29.5679 47.5171 22.5124C47.5171 15.4569 41.5959 9.71659 34.3181 9.71659Z" fill="white"/>
<path d="M42.9242 22.5056C42.9242 27.121 39.0689 30.8619 34.3207 30.8619C33.1891 30.8617 32.0687 30.6454 31.0233 30.2254C29.978 29.8053 29.0283 29.1897 28.2285 28.4136C27.4287 27.6376 26.7944 26.7165 26.3619 25.7027C25.9295 24.689 25.7073 23.6026 25.708 22.5056C25.708 17.898 29.5621 14.1716 34.3207 14.1716C39.0689 14.1716 42.9242 17.8991 42.9242 22.5056Z" fill="white"/>
</svg>
