<svg width="30" height="22" viewBox="0 0 30 22" fill="none" xmlns="http://www.w3.org/2000/svg">
<path d="M30 10.7846C30 10.7109 30 10.6272 29.9967 10.5301C29.9933 10.2589 29.9866 9.95424 29.9799 9.62947C29.9531 8.69531 29.9062 7.76451 29.8326 6.88728C29.7321 5.67857 29.5848 4.67076 29.3839 3.91406C29.1719 3.12438 28.7564 2.40418 28.1788 1.82543C27.6012 1.24669 26.8819 0.829674 26.0926 0.616071C25.1451 0.361607 23.2902 0.204241 20.6786 0.107143C19.4364 0.0602678 18.1071 0.0301337 16.7779 0.0133927C16.3125 0.00669622 15.8806 0.00334821 15.4922 0H14.5078C14.1194 0.00334821 13.6875 0.00669622 13.2221 0.0133927C11.8929 0.0301337 10.5636 0.0602678 9.32143 0.107143C6.70982 0.207589 4.85156 0.364955 3.90737 0.616071C3.11786 0.82915 2.39822 1.24599 1.82057 1.82482C1.24292 2.40364 0.827545 3.12413 0.616071 3.91406C0.41183 4.67076 0.267857 5.67857 0.167411 6.88728C0.09375 7.76451 0.0468749 8.69531 0.0200892 9.62947C0.0100446 9.95424 0.00669638 10.2589 0.00334816 10.5301C0.00334816 10.6272 0 10.7109 0 10.7846V10.9721C0 11.0458 -5.11396e-08 11.1295 0.00334816 11.2266C0.00669638 11.4978 0.0133928 11.8025 0.0200892 12.1272C0.0468749 13.0614 0.09375 13.9922 0.167411 14.8694C0.267857 16.0781 0.415179 17.0859 0.616071 17.8426C1.04464 19.4464 2.30357 20.7121 3.90737 21.1406C4.85156 21.3951 6.70982 21.5525 9.32143 21.6496C10.5636 21.6964 11.8929 21.7266 13.2221 21.7433C13.6875 21.75 14.1194 21.7534 14.5078 21.7567H15.4922C15.8806 21.7534 16.3125 21.75 16.7779 21.7433C18.1071 21.7266 19.4364 21.6964 20.6786 21.6496C23.2902 21.5491 25.1484 21.3917 26.0926 21.1406C27.6964 20.7121 28.9554 19.4498 29.3839 17.8426C29.5882 17.0859 29.7321 16.0781 29.8326 14.8694C29.9062 13.9922 29.9531 13.0614 29.9799 12.1272C29.99 11.8025 29.9933 11.4978 29.9967 11.2266C29.9967 11.1295 30 11.0458 30 10.9721V10.7846ZM27.5893 10.9587C27.5893 11.029 27.5893 11.106 27.5859 11.1964C27.5826 11.4576 27.5759 11.7455 27.5692 12.0569C27.5458 12.9475 27.4989 13.8382 27.4286 14.6652C27.3382 15.7433 27.2109 16.6272 27.0536 17.2199C26.846 17.9933 26.2366 18.606 25.4665 18.8103C24.7634 18.9978 22.9922 19.1484 20.5848 19.2388C19.3661 19.2857 18.0536 19.3159 16.7444 19.3326C16.2857 19.3393 15.8605 19.3426 15.4788 19.3426H14.5212L13.2556 19.3326C11.9464 19.3159 10.6373 19.2857 9.41518 19.2388C7.00781 19.1451 5.23326 18.9978 4.53348 18.8103C3.76339 18.6027 3.15402 17.9933 2.94643 17.2199C2.78906 16.6272 2.66183 15.7433 2.57143 14.6652C2.50112 13.8382 2.45759 12.9475 2.4308 12.0569C2.42076 11.7455 2.41741 11.4542 2.41406 11.1964C2.41406 11.106 2.41071 11.0257 2.41071 10.9587V10.798C2.41071 10.7277 2.41071 10.6507 2.41406 10.5603C2.41741 10.2991 2.42411 10.0112 2.4308 9.69978C2.45424 8.80915 2.50112 7.91853 2.57143 7.09152C2.66183 6.01339 2.78906 5.12946 2.94643 4.53683C3.15402 3.76339 3.76339 3.15067 4.53348 2.94643C5.23661 2.75893 7.00781 2.60826 9.41518 2.51786C10.6339 2.47098 11.9464 2.44085 13.2556 2.42411C13.7143 2.41741 14.1395 2.41406 14.5212 2.41406H15.4788L16.7444 2.42411C18.0536 2.44085 19.3627 2.47098 20.5848 2.51786C22.9922 2.61161 24.7667 2.75893 25.4665 2.94643C26.2366 3.15402 26.846 3.76339 27.0536 4.53683C27.2109 5.12946 27.3382 6.01339 27.4286 7.09152C27.4989 7.91853 27.5424 8.80915 27.5692 9.69978C27.5792 10.0112 27.5826 10.3025 27.5859 10.5603C27.5859 10.6507 27.5893 10.731 27.5893 10.798V10.9587ZM12.0201 15.365L19.7879 10.8449L12.0201 6.39174V15.365Z" fill="white"/>
</svg>
