<svg width="24" height="36" viewBox="0 0 24 36" fill="none" xmlns="http://www.w3.org/2000/svg">
<path d="M12 0C5.39067 0 0 5.39051 0 11.9997C0 13.8743 0.76 16.0262 1.792 18.3741C2.82267 20.7234 4.152 23.218 5.5 25.5406C7.19851 28.4547 9.00556 31.3042 10.9173 34.083L12 35.6656L13.084 34.0817C13.084 34.0817 15.8027 30.1925 18.5 25.5406C19.8493 23.218 21.1773 20.7234 22.208 18.3741C23.24 16.0262 24 13.8743 24 11.9997C24 5.39051 18.6093 0 12 0ZM12 2.66659C17.172 2.66659 21.3333 6.8278 21.3333 11.9997C21.3333 13.0663 20.76 15.0876 19.792 17.2915C18.8227 19.4941 17.4853 21.9367 16.1667 24.2073C14.0733 27.8219 12.7707 29.7338 12 30.8738C11.2293 29.7338 9.92667 27.8219 7.83333 24.2073C6.516 21.9367 5.17733 19.4941 4.208 17.2915C3.24 15.0876 2.66667 13.0663 2.66667 11.9997C2.66667 6.8278 6.828 2.66659 12 2.66659ZM12 9.33306C11.2928 9.33306 10.6145 9.61401 10.1144 10.1141C9.61429 10.6142 9.33333 11.2924 9.33333 11.9997C9.33333 12.7069 9.61429 13.3851 10.1144 13.8852C10.6145 14.3853 11.2928 14.6662 12 14.6662C12.7072 14.6662 13.3855 14.3853 13.8856 13.8852C14.3857 13.3851 14.6667 12.7069 14.6667 11.9997C14.6667 11.2924 14.3857 10.6142 13.8856 10.1141C13.3855 9.61401 12.7072 9.33306 12 9.33306Z" fill="white"/>
</svg>
