<svg width="72" height="50" viewBox="0 0 72 50" fill="none" xmlns="http://www.w3.org/2000/svg">
<path d="M58.5879 0.190186C56.1331 2.53956 53.213 4.34813 50.016 5.49915C46.645 6.09404 37.316 1.76755 32.7191 6.18418C31.9529 6.95033 31.0065 7.71648 30.015 8.48263C27.8518 7.53621 24.5168 6.09404 22.0831 4.69695C19.6495 3.29985 13.5203 0.190186 13.5203 0.190186L0 15.9638C0 15.9638 3.335 20.4706 5.40811 23.4451C6.76014 25.428 8.42764 28.4476 9.50926 30.4756L7.97697 32.2783C7.61002 33.0073 7.47799 33.832 7.59905 34.6391C7.72011 35.4462 8.08831 36.1959 8.65298 36.7851C9.30475 37.2737 10.0978 37.5371 10.9124 37.5355C11.727 37.5338 12.5189 37.2673 13.1688 36.7761C12.9278 37.0582 12.7455 37.3854 12.6323 37.7388C12.5192 38.0921 12.4776 38.4644 12.5099 38.834C12.5422 39.2036 12.6478 39.5631 12.8205 39.8915C12.9932 40.2198 13.2295 40.5105 13.5158 40.7465C14.204 41.1484 14.9869 41.3595 15.7839 41.3579C16.5809 41.3563 17.363 41.1422 18.0496 40.7375C17.5347 41.3793 17.2529 42.1769 17.2504 42.9998C17.248 43.8226 17.525 44.6219 18.0361 45.2668C18.7004 45.4968 19.4089 45.5701 20.1063 45.481C20.8036 45.3918 21.4709 45.1427 22.0561 44.753C21.7646 45.443 21.6891 46.2052 21.8395 46.9389C21.99 47.6727 22.3593 48.3436 22.8988 48.8632C23.661 49.2018 24.4966 49.3415 25.3274 49.2689C26.1582 49.1964 26.957 48.9141 27.649 48.4486L29.9745 46.3439C32.1017 48.4621 35.0356 49.7736 38.2759 49.7736L38.5508 49.7691C39.6187 49.6779 40.6416 49.298 41.5102 48.67C42.3787 48.0421 43.06 47.1897 43.4812 46.2042C44.1392 46.4566 44.8873 46.6278 45.6805 46.6278C46.7441 46.6278 47.7311 46.3214 48.5648 45.7941C51.2013 44.05 50.5704 42.6979 50.5704 42.6979C51.5078 43.1015 52.5492 43.1972 53.5445 42.9712C54.5398 42.7453 55.4378 42.2093 56.1092 41.4406C56.8068 40.7269 57.2467 39.801 57.3594 38.8094C57.472 37.8177 57.2509 36.8168 56.7311 35.9648C56.7596 35.9819 56.7926 35.9897 56.8257 35.9874C58.7231 35.9874 60.3726 34.9418 61.2333 33.4005C61.6569 32.305 61.8001 31.1211 61.6498 29.9562C61.4994 28.7914 61.0604 27.6825 60.3726 26.7305L60.3861 26.753C64.0816 26.0319 63.9464 24.1842 65.7491 21.4801C67.456 19.2735 69.5799 17.4237 72 16.036L58.5879 0.190186ZM58.3625 32.0079C56.3796 33.9909 54.8473 33.1346 51.4672 30.5657C48.0871 27.9969 41.3721 23.1747 41.3721 23.1747C41.647 24.5492 42.2824 25.7435 43.1793 26.6944C44.6169 28.3124 48.8983 32.0079 50.9264 33.9007C52.1883 35.0725 55.4332 37.416 53.5403 39.2187C51.6475 41.0214 50.1602 39.2187 47.0506 36.6949C43.9409 34.1712 37.0005 27.9518 37.0005 27.9518C36.9623 28.548 37.051 29.1455 37.2607 29.7048C37.4705 30.2642 37.7965 30.7727 38.2173 31.1967C38.9835 32.098 43.2649 36.2443 45.0676 38.1371C46.8703 40.0299 48.4477 41.1566 46.9154 42.6439C45.3831 44.1311 42.2734 41.7876 40.5608 40.0299C37.9019 37.4611 32.6289 32.6839 32.6289 32.6839L32.6244 32.9228C32.6244 34.2027 33.0661 35.3745 33.8097 36.3029C35.1077 38.0064 37.6314 40.2147 39.1637 41.9273C40.696 43.6399 41.5974 45.082 39.1637 46.4341C36.7301 47.7861 33.1247 44.4511 31.5473 42.8286V42.8196C31.5476 42.3745 31.3877 41.9441 31.0966 41.6073C30.5576 41.1079 29.8924 40.7651 29.1729 40.6158C28.4534 40.4665 27.7068 40.5164 27.0135 40.76C27.2988 40.5047 27.5274 40.1924 27.6848 39.8434C27.8422 39.4944 27.9248 39.1163 27.9273 38.7335C27.9299 38.3506 27.8523 37.9715 27.6996 37.6204C27.5469 37.2693 27.3224 36.9541 27.0406 36.6949C26.449 36.2467 25.7269 36.0045 24.9847 36.0053C24.2425 36.0061 23.521 36.2499 22.9304 36.6994C23.229 36.4142 23.4596 36.0653 23.6049 35.6788C23.7502 35.2922 23.8065 34.8778 23.7697 34.4665C23.7329 34.0552 23.6039 33.6574 23.3923 33.3028C23.1807 32.9481 22.8918 32.6457 22.5473 32.418C21.7405 31.9111 20.7938 31.6729 19.8432 31.7377C18.8926 31.8025 17.9869 32.1669 17.2564 32.7786C17.7447 32.1868 17.9854 31.4292 17.9283 30.6642C17.8712 29.8991 17.5206 29.1856 16.9499 28.6729C16.2406 28.0127 15.3367 27.5998 14.3733 27.4958C13.4099 27.3918 12.4387 27.6024 11.6049 28.096L8.60791 23.035C6.5348 19.745 4.10115 16.3199 4.10115 16.3199L14.3766 3.83615C14.3766 3.83615 18.027 6.08954 21.0466 7.8021C22.5338 8.65839 25.1027 9.78508 27.0406 10.6864C23.976 12.9849 21.4071 15.1932 22.1733 16.7255C23.5386 17.7056 25.1703 18.2462 26.8507 18.2752C28.5312 18.3042 30.1805 17.8202 31.5789 16.8877C33.3718 15.6958 35.4785 15.0637 37.6314 15.0715C39.1953 15.0715 40.6825 15.396 42.03 15.9864C44.5268 17.6719 49.1237 21.8181 53.315 24.432C58.5879 28.2628 59.6244 30.7415 58.3625 32.0034V32.0079Z" fill="white"/>
</svg>
